<svg xmlns="http://www.w3.org/2000/svg" width="940" height="380" viewBox="0 0 940 380" fill="none">
    <path d="M784.138 36C797.609 42.5845 820.034 56.8362 833.254 64.8364C849.833 74.8733 871.385 86.8853 887.171 97.4804C887.553 147.942 887.81 200.711 887.183 251.166C874.362 259.936 860.081 268.575 846.85 276.929C839.989 281.263 829.079 288.602 822.321 292.177L822.281 212.905C814.194 207.958 806.078 203.058 797.934 198.202C794.016 195.86 787.503 192.242 783.962 189.625C783.659 180.708 783.785 172.136 783.899 163.221C784.013 121.707 783.061 77.2401 784.138 36Z" fill="#0D7EFB"/>
    <path d="M784.138 36C797.609 42.5845 820.034 56.8362 833.254 64.8364C849.833 74.8733 871.385 86.8853 887.171 97.4804C862.768 113.699 837.257 129.318 812.557 145.172C806.865 148.824 789.203 161.091 783.899 163.221C784.013 121.707 783.061 77.2401 784.138 36Z" fill="#41A2FD"/>
    <path d="M813.088 214.831C814.491 216.932 813.972 287.642 813.966 296.875C798.915 306.841 783.3 316.208 768.198 326.111C763.385 329.266 758.298 332.497 753.233 335.19C752.8 327.619 753.028 316.907 752.999 309.126C753.079 290.404 753.056 271.681 752.931 252.958C760.225 247.623 770.896 241.339 778.755 236.37C789.996 229.268 801.704 221.59 813.088 214.831Z" fill="#41A2FD"/>
    <rect x="100" y="248.58" width="313" height="87" rx="43.5" fill="#0D7EFB"/>
    <path d="M141.482 270.671L151.853 303.272H152.251L162.643 270.671H172.7L157.908 313.58H146.217L131.404 270.671H141.482ZM177.864 270.671H189.052L200.869 299.5H201.372L213.189 270.671H224.377V313.58H215.577V285.651H215.221L204.117 313.37H198.124L187.02 285.547H186.664V313.58H177.864V270.671ZM255.129 283.011C254.961 281.321 254.242 280.008 252.971 279.072C251.7 278.137 249.975 277.669 247.796 277.669C246.315 277.669 245.065 277.878 244.045 278.297C243.026 278.702 242.244 279.268 241.699 279.994C241.168 280.721 240.903 281.545 240.903 282.467C240.875 283.235 241.035 283.905 241.384 284.478C241.748 285.051 242.244 285.547 242.872 285.966C243.501 286.371 244.227 286.727 245.051 287.034C245.875 287.327 246.755 287.579 247.691 287.788L251.546 288.71C253.418 289.129 255.136 289.688 256.7 290.386C258.265 291.085 259.619 291.944 260.765 292.963C261.91 293.983 262.797 295.184 263.426 296.567C264.068 297.95 264.396 299.535 264.41 301.323C264.396 303.949 263.726 306.226 262.399 308.153C261.086 310.067 259.186 311.555 256.7 312.616C254.228 313.664 251.246 314.188 247.754 314.188C244.29 314.188 241.273 313.657 238.703 312.595C236.147 311.534 234.149 309.962 232.71 307.881C231.286 305.786 230.539 303.195 230.469 300.108H239.247C239.345 301.547 239.757 302.748 240.484 303.712C241.224 304.662 242.209 305.381 243.438 305.87C244.681 306.345 246.085 306.582 247.649 306.582C249.186 306.582 250.519 306.359 251.651 305.912C252.796 305.465 253.683 304.843 254.312 304.047C254.94 303.251 255.255 302.336 255.255 301.302C255.255 300.338 254.968 299.528 254.396 298.872C253.837 298.215 253.013 297.657 251.923 297.196C250.848 296.735 249.528 296.316 247.963 295.939L243.291 294.765C239.673 293.885 236.817 292.51 234.722 290.638C232.627 288.766 231.586 286.245 231.6 283.074C231.586 280.476 232.277 278.206 233.674 276.265C235.085 274.323 237.02 272.808 239.478 271.718C241.936 270.629 244.73 270.084 247.859 270.084C251.043 270.084 253.823 270.629 256.197 271.718C258.586 272.808 260.444 274.323 261.771 276.265C263.097 278.206 263.782 280.455 263.824 283.011H255.129ZM290.396 288.585V295.666H270.827V288.585H290.396ZM334.059 270.671V313.58H326.223L307.555 286.573H307.241V313.58H298.169V270.671H306.131L324.652 297.657H325.029V270.671H334.059ZM379.414 285.693H370.237C370.07 284.506 369.728 283.451 369.211 282.53C368.694 281.594 368.031 280.798 367.22 280.141C366.41 279.485 365.474 278.982 364.413 278.633C363.365 278.283 362.227 278.109 360.998 278.109C358.777 278.109 356.842 278.66 355.194 279.764C353.546 280.853 352.268 282.446 351.36 284.541C350.452 286.622 349.998 289.15 349.998 292.125C349.998 295.184 350.452 297.754 351.36 299.836C352.282 301.917 353.567 303.488 355.215 304.55C356.863 305.611 358.77 306.142 360.935 306.142C362.15 306.142 363.275 305.981 364.308 305.66C365.356 305.339 366.285 304.871 367.095 304.256C367.905 303.628 368.575 302.867 369.106 301.973C369.651 301.079 370.028 300.059 370.237 298.914L379.414 298.956C379.177 300.925 378.583 302.825 377.633 304.655C376.698 306.47 375.434 308.098 373.841 309.536C372.263 310.961 370.377 312.092 368.184 312.93C366.005 313.755 363.54 314.167 360.788 314.167C356.961 314.167 353.539 313.301 350.522 311.569C347.519 309.837 345.144 307.329 343.398 304.047C341.666 300.764 340.8 296.791 340.8 292.125C340.8 287.446 341.68 283.465 343.44 280.183C345.2 276.901 347.589 274.4 350.606 272.682C353.623 270.95 357.017 270.084 360.788 270.084C363.275 270.084 365.579 270.433 367.702 271.132C369.839 271.83 371.732 272.85 373.38 274.191C375.028 275.518 376.369 277.145 377.403 279.072C378.451 281 379.121 283.207 379.414 285.693Z" fill="white"/>
    <path d="M466.991 286.392H459.526C459.389 285.427 459.111 284.569 458.69 283.819C458.27 283.057 457.73 282.41 457.071 281.875C456.412 281.341 455.651 280.932 454.787 280.648C453.935 280.364 453.009 280.222 452.009 280.222C450.202 280.222 448.628 280.671 447.287 281.569C445.946 282.455 444.906 283.75 444.168 285.455C443.429 287.148 443.06 289.205 443.06 291.625C443.06 294.114 443.429 296.205 444.168 297.898C444.918 299.591 445.963 300.87 447.304 301.733C448.645 302.597 450.196 303.029 451.957 303.029C452.946 303.029 453.861 302.898 454.702 302.637C455.554 302.375 456.31 301.995 456.969 301.495C457.628 300.983 458.173 300.364 458.605 299.637C459.048 298.91 459.355 298.08 459.526 297.148L466.991 297.182C466.798 298.785 466.315 300.33 465.543 301.819C464.781 303.296 463.753 304.62 462.457 305.79C461.173 306.949 459.639 307.87 457.855 308.552C456.082 309.222 454.077 309.557 451.838 309.557C448.724 309.557 445.94 308.853 443.486 307.444C441.043 306.035 439.111 303.995 437.69 301.324C436.281 298.654 435.577 295.421 435.577 291.625C435.577 287.819 436.293 284.58 437.724 281.91C439.156 279.239 441.099 277.205 443.554 275.807C446.009 274.398 448.77 273.694 451.838 273.694C453.861 273.694 455.736 273.978 457.463 274.546C459.202 275.114 460.741 275.944 462.082 277.034C463.423 278.114 464.514 279.438 465.355 281.006C466.207 282.574 466.753 284.37 466.991 286.392ZM479.409 274.171V309.08H472.148V274.171H479.409ZM497.055 309.591C494.408 309.591 492.118 309.029 490.186 307.904C488.266 306.767 486.783 305.188 485.737 303.165C484.692 301.131 484.169 298.773 484.169 296.091C484.169 293.387 484.692 291.023 485.737 289C486.783 286.966 488.266 285.387 490.186 284.262C492.118 283.125 494.408 282.557 497.055 282.557C499.703 282.557 501.987 283.125 503.908 284.262C505.839 285.387 507.328 286.966 508.374 289C509.419 291.023 509.942 293.387 509.942 296.091C509.942 298.773 509.419 301.131 508.374 303.165C507.328 305.188 505.839 306.767 503.908 307.904C501.987 309.029 499.703 309.591 497.055 309.591ZM497.089 303.966C498.294 303.966 499.3 303.625 500.107 302.944C500.913 302.25 501.521 301.307 501.93 300.114C502.351 298.921 502.561 297.563 502.561 296.04C502.561 294.517 502.351 293.16 501.93 291.966C501.521 290.773 500.913 289.83 500.107 289.137C499.3 288.444 498.294 288.097 497.089 288.097C495.874 288.097 494.851 288.444 494.021 289.137C493.203 289.83 492.584 290.773 492.163 291.966C491.754 293.16 491.55 294.517 491.55 296.04C491.55 297.563 491.754 298.921 492.163 300.114C492.584 301.307 493.203 302.25 494.021 302.944C494.851 303.625 495.874 303.966 497.089 303.966ZM531.453 297.932V282.898H538.714V309.08H531.743V304.324H531.47C530.879 305.858 529.896 307.091 528.521 308.023C527.158 308.955 525.493 309.421 523.527 309.421C521.777 309.421 520.237 309.023 518.908 308.228C517.578 307.432 516.538 306.302 515.788 304.836C515.05 303.37 514.675 301.614 514.663 299.569V282.898H521.925V298.273C521.936 299.819 522.351 301.04 523.169 301.938C523.987 302.836 525.084 303.285 526.459 303.285C527.334 303.285 528.152 303.086 528.913 302.688C529.675 302.279 530.288 301.677 530.754 300.881C531.232 300.086 531.464 299.103 531.453 297.932ZM554.17 309.506C552.182 309.506 550.381 308.995 548.767 307.972C547.165 306.938 545.892 305.421 544.949 303.421C544.017 301.41 543.551 298.944 543.551 296.023C543.551 293.023 544.034 290.529 545 288.54C545.966 286.54 547.25 285.046 548.852 284.057C550.466 283.057 552.233 282.557 554.153 282.557C555.619 282.557 556.841 282.807 557.818 283.307C558.807 283.796 559.602 284.41 560.205 285.148C560.818 285.875 561.284 286.591 561.602 287.296H561.824V274.171H569.068V309.08H561.909V304.887H561.602C561.261 305.614 560.778 306.336 560.153 307.052C559.54 307.756 558.739 308.341 557.75 308.807C556.773 309.273 555.58 309.506 554.17 309.506ZM556.472 303.728C557.642 303.728 558.631 303.41 559.438 302.773C560.256 302.125 560.881 301.222 561.312 300.063C561.756 298.904 561.977 297.546 561.977 295.989C561.977 294.432 561.761 293.08 561.33 291.932C560.898 290.785 560.273 289.898 559.455 289.273C558.636 288.648 557.642 288.336 556.472 288.336C555.278 288.336 554.273 288.66 553.455 289.307C552.636 289.955 552.017 290.853 551.597 292C551.176 293.148 550.966 294.478 550.966 295.989C550.966 297.512 551.176 298.858 551.597 300.029C552.028 301.188 552.648 302.097 553.455 302.756C554.273 303.404 555.278 303.728 556.472 303.728ZM605.222 284.211C605.085 282.836 604.5 281.767 603.466 281.006C602.432 280.245 601.028 279.864 599.256 279.864C598.051 279.864 597.034 280.035 596.205 280.375C595.375 280.705 594.739 281.165 594.295 281.756C593.864 282.347 593.648 283.017 593.648 283.767C593.625 284.392 593.756 284.938 594.04 285.404C594.335 285.87 594.739 286.273 595.25 286.614C595.761 286.944 596.352 287.233 597.023 287.483C597.693 287.722 598.409 287.927 599.17 288.097L602.307 288.847C603.83 289.188 605.227 289.642 606.5 290.211C607.773 290.779 608.875 291.478 609.807 292.307C610.739 293.137 611.46 294.114 611.972 295.239C612.494 296.364 612.761 297.654 612.773 299.108C612.761 301.245 612.216 303.097 611.136 304.665C610.068 306.222 608.523 307.432 606.5 308.296C604.489 309.148 602.063 309.574 599.222 309.574C596.403 309.574 593.949 309.142 591.858 308.279C589.778 307.415 588.153 306.137 586.983 304.444C585.824 302.739 585.216 300.631 585.159 298.12H592.301C592.381 299.29 592.716 300.267 593.307 301.052C593.909 301.824 594.71 302.41 595.71 302.807C596.722 303.194 597.864 303.387 599.136 303.387C600.386 303.387 601.472 303.205 602.392 302.841C603.324 302.478 604.045 301.972 604.557 301.324C605.068 300.677 605.324 299.932 605.324 299.091C605.324 298.307 605.091 297.648 604.625 297.114C604.17 296.58 603.5 296.125 602.614 295.75C601.739 295.375 600.665 295.035 599.392 294.728L595.591 293.773C592.648 293.057 590.324 291.938 588.619 290.415C586.915 288.892 586.068 286.841 586.08 284.262C586.068 282.148 586.631 280.302 587.767 278.722C588.915 277.142 590.489 275.91 592.489 275.023C594.489 274.137 596.761 273.694 599.307 273.694C601.898 273.694 604.159 274.137 606.091 275.023C608.034 275.91 609.545 277.142 610.625 278.722C611.705 280.302 612.261 282.131 612.295 284.211H605.222ZM625.067 309.574C623.396 309.574 621.908 309.285 620.601 308.705C619.294 308.114 618.26 307.245 617.499 306.097C616.749 304.938 616.374 303.495 616.374 301.767C616.374 300.313 616.641 299.091 617.175 298.103C617.709 297.114 618.436 296.319 619.357 295.716C620.277 295.114 621.322 294.66 622.493 294.353C623.675 294.046 624.913 293.83 626.209 293.705C627.732 293.546 628.959 293.398 629.891 293.262C630.822 293.114 631.499 292.898 631.919 292.614C632.339 292.33 632.55 291.91 632.55 291.353V291.25C632.55 290.171 632.209 289.336 631.527 288.745C630.857 288.154 629.902 287.858 628.663 287.858C627.357 287.858 626.317 288.148 625.544 288.728C624.771 289.296 624.26 290.012 624.01 290.875L617.294 290.33C617.635 288.739 618.305 287.364 619.305 286.205C620.305 285.035 621.595 284.137 623.175 283.512C624.766 282.875 626.607 282.557 628.697 282.557C630.152 282.557 631.544 282.728 632.874 283.069C634.214 283.41 635.402 283.938 636.436 284.654C637.482 285.37 638.305 286.29 638.908 287.415C639.51 288.529 639.811 289.864 639.811 291.421V309.08H632.925V305.449H632.72C632.3 306.267 631.737 306.989 631.033 307.614C630.328 308.228 629.482 308.711 628.493 309.063C627.504 309.404 626.362 309.574 625.067 309.574ZM627.146 304.563C628.214 304.563 629.158 304.353 629.976 303.932C630.794 303.5 631.436 302.921 631.902 302.194C632.368 301.466 632.601 300.642 632.601 299.722V296.944C632.374 297.091 632.061 297.228 631.663 297.353C631.277 297.466 630.839 297.574 630.351 297.677C629.862 297.767 629.374 297.853 628.885 297.932C628.396 298 627.953 298.063 627.555 298.12C626.703 298.245 625.959 298.444 625.322 298.716C624.686 298.989 624.192 299.358 623.839 299.824C623.487 300.279 623.311 300.847 623.311 301.529C623.311 302.517 623.669 303.273 624.385 303.796C625.112 304.307 626.033 304.563 627.146 304.563ZM652.911 309.574C651.24 309.574 649.751 309.285 648.445 308.705C647.138 308.114 646.104 307.245 645.342 306.097C644.592 304.938 644.217 303.495 644.217 301.767C644.217 300.313 644.484 299.091 645.018 298.103C645.553 297.114 646.28 296.319 647.2 295.716C648.121 295.114 649.166 294.66 650.337 294.353C651.518 294.046 652.757 293.83 654.053 293.705C655.575 293.546 656.803 293.398 657.734 293.262C658.666 293.114 659.342 292.898 659.763 292.614C660.183 292.33 660.393 291.91 660.393 291.353V291.25C660.393 290.171 660.053 289.336 659.371 288.745C658.7 288.154 657.746 287.858 656.507 287.858C655.2 287.858 654.161 288.148 653.388 288.728C652.615 289.296 652.104 290.012 651.854 290.875L645.138 290.33C645.479 288.739 646.149 287.364 647.149 286.205C648.149 285.035 649.439 284.137 651.018 283.512C652.609 282.875 654.45 282.557 656.541 282.557C657.996 282.557 659.388 282.728 660.717 283.069C662.058 283.41 663.246 283.938 664.28 284.654C665.325 285.37 666.149 286.29 666.751 287.415C667.354 288.529 667.655 289.864 667.655 291.421V309.08H660.768V305.449H660.564C660.143 306.267 659.581 306.989 658.876 307.614C658.172 308.228 657.325 308.711 656.337 309.063C655.348 309.404 654.206 309.574 652.911 309.574ZM654.99 304.563C656.058 304.563 657.001 304.353 657.82 303.932C658.638 303.5 659.28 302.921 659.746 302.194C660.212 301.466 660.445 300.642 660.445 299.722V296.944C660.217 297.091 659.905 297.228 659.507 297.353C659.121 297.466 658.683 297.574 658.195 297.677C657.706 297.767 657.217 297.853 656.729 297.932C656.24 298 655.797 298.063 655.399 298.12C654.547 298.245 653.803 298.444 653.166 298.716C652.53 298.989 652.036 299.358 651.683 299.824C651.331 300.279 651.155 300.847 651.155 301.529C651.155 302.517 651.513 303.273 652.229 303.796C652.956 304.307 653.876 304.563 654.99 304.563ZM692.362 284.211C692.226 282.836 691.641 281.767 690.607 281.006C689.572 280.245 688.169 279.864 686.396 279.864C685.192 279.864 684.175 280.035 683.345 280.375C682.516 280.705 681.879 281.165 681.436 281.756C681.004 282.347 680.788 283.017 680.788 283.767C680.766 284.392 680.896 284.938 681.18 285.404C681.476 285.87 681.879 286.273 682.391 286.614C682.902 286.944 683.493 287.233 684.163 287.483C684.834 287.722 685.55 287.927 686.311 288.097L689.447 288.847C690.97 289.188 692.368 289.642 693.641 290.211C694.913 290.779 696.016 291.478 696.947 292.307C697.879 293.137 698.601 294.114 699.112 295.239C699.635 296.364 699.902 297.654 699.913 299.108C699.902 301.245 699.357 303.097 698.277 304.665C697.209 306.222 695.663 307.432 693.641 308.296C691.629 309.148 689.203 309.574 686.362 309.574C683.544 309.574 681.089 309.142 678.999 308.279C676.919 307.415 675.294 306.137 674.124 304.444C672.964 302.739 672.357 300.631 672.3 298.12H679.442C679.521 299.29 679.857 300.267 680.447 301.052C681.05 301.824 681.851 302.41 682.851 302.807C683.862 303.194 685.004 303.387 686.277 303.387C687.527 303.387 688.612 303.205 689.533 302.841C690.464 302.478 691.186 301.972 691.697 301.324C692.209 300.677 692.464 299.932 692.464 299.091C692.464 298.307 692.232 297.648 691.766 297.114C691.311 296.58 690.641 296.125 689.754 295.75C688.879 295.375 687.805 295.035 686.533 294.728L682.732 293.773C679.788 293.057 677.464 291.938 675.76 290.415C674.055 288.892 673.209 286.841 673.22 284.262C673.209 282.148 673.771 280.302 674.908 278.722C676.055 277.142 677.629 275.91 679.629 275.023C681.629 274.137 683.902 273.694 686.447 273.694C689.038 273.694 691.3 274.137 693.232 275.023C695.175 275.91 696.686 277.142 697.766 278.722C698.845 280.302 699.402 282.131 699.436 284.211H692.362Z" fill="#0D7EFB"/>
    <path d="M91.0994 155.841C90.8267 153.091 89.6563 150.955 87.5881 149.432C85.5199 147.909 82.7131 147.148 79.1676 147.148C76.7585 147.148 74.7244 147.489 73.0653 148.171C71.4063 148.83 70.1335 149.75 69.2472 150.932C68.3835 152.114 67.9517 153.455 67.9517 154.955C67.9063 156.205 68.1676 157.296 68.7358 158.228C69.3267 159.16 70.1335 159.966 71.1562 160.648C72.179 161.307 73.3608 161.887 74.7017 162.387C76.0426 162.864 77.4744 163.273 78.9972 163.614L85.2699 165.114C88.3153 165.796 91.1108 166.705 93.6562 167.841C96.2017 168.978 98.4063 170.375 100.27 172.034C102.134 173.694 103.577 175.648 104.599 177.898C105.645 180.148 106.179 182.728 106.202 185.637C106.179 189.91 105.088 193.614 102.929 196.75C100.793 199.864 97.7017 202.285 93.6562 204.012C89.6335 205.716 84.7813 206.569 79.0994 206.569C73.4631 206.569 68.554 205.705 64.3722 203.978C60.2131 202.25 56.9631 199.694 54.6222 196.307C52.304 192.898 51.0881 188.682 50.9744 183.66H65.2585C65.4176 186 66.0881 187.955 67.2699 189.523C68.4744 191.069 70.0767 192.239 72.0767 193.035C74.0994 193.807 76.3835 194.194 78.929 194.194C81.429 194.194 83.5994 193.83 85.4403 193.103C87.304 192.375 88.7472 191.364 89.7699 190.069C90.7926 188.773 91.304 187.285 91.304 185.603C91.304 184.035 90.8381 182.716 89.9062 181.648C88.9972 180.58 87.6563 179.671 85.8835 178.921C84.1335 178.171 81.9858 177.489 79.4403 176.875L71.8381 174.966C65.9517 173.535 61.304 171.296 57.8949 168.25C54.4858 165.205 52.7926 161.103 52.8153 155.944C52.7926 151.716 53.9176 148.023 56.1903 144.864C58.4858 141.705 61.6335 139.239 65.6335 137.466C69.6335 135.694 74.179 134.807 79.2699 134.807C84.4517 134.807 88.9744 135.694 92.8381 137.466C96.7244 139.239 99.7472 141.705 101.906 144.864C104.065 148.023 105.179 151.682 105.247 155.841H91.0994ZM116.131 205.58V135.762H130.892V164.569H160.858V135.762H175.585V205.58H160.858V176.739H130.892V205.58H116.131ZM251.915 170.671C251.915 178.285 250.472 184.762 247.585 190.103C244.722 195.444 240.813 199.523 235.858 202.341C230.926 205.137 225.381 206.535 219.222 206.535C213.017 206.535 207.449 205.125 202.517 202.307C197.585 199.489 193.688 195.41 190.824 190.069C187.96 184.728 186.528 178.262 186.528 170.671C186.528 163.057 187.96 156.58 190.824 151.239C193.688 145.898 197.585 141.83 202.517 139.035C207.449 136.216 213.017 134.807 219.222 134.807C225.381 134.807 230.926 136.216 235.858 139.035C240.813 141.83 244.722 145.898 247.585 151.239C250.472 156.58 251.915 163.057 251.915 170.671ZM236.949 170.671C236.949 165.739 236.21 161.58 234.733 158.194C233.278 154.807 231.222 152.239 228.562 150.489C225.903 148.739 222.79 147.864 219.222 147.864C215.653 147.864 212.54 148.739 209.881 150.489C207.222 152.239 205.153 154.807 203.676 158.194C202.222 161.58 201.494 165.739 201.494 170.671C201.494 175.603 202.222 179.762 203.676 183.148C205.153 186.535 207.222 189.103 209.881 190.853C212.54 192.603 215.653 193.478 219.222 193.478C222.79 193.478 225.903 192.603 228.562 190.853C231.222 189.103 233.278 186.535 234.733 183.148C236.21 179.762 236.949 175.603 236.949 170.671ZM275.94 205.58L255.963 135.762H272.088L283.645 184.273H284.224L296.974 135.762H310.781L323.497 184.375H324.111L335.668 135.762H351.793L331.815 205.58H317.429L304.134 159.932H303.588L290.327 205.58H275.94ZM359.693 205.58V135.762H406.739V147.932H374.455V164.569H404.318V176.739H374.455V193.41H406.875V205.58H359.693ZM418.474 205.58V135.762H446.02C451.293 135.762 455.793 136.705 459.52 138.591C463.27 140.455 466.122 143.103 468.077 146.535C470.054 149.944 471.043 153.955 471.043 158.569C471.043 163.205 470.043 167.194 468.043 170.534C466.043 173.853 463.145 176.398 459.349 178.171C455.577 179.944 451.009 180.83 445.645 180.83H427.202V168.966H443.259C446.077 168.966 448.418 168.58 450.281 167.807C452.145 167.035 453.531 165.875 454.44 164.33C455.372 162.785 455.838 160.864 455.838 158.569C455.838 156.25 455.372 154.296 454.44 152.705C453.531 151.114 452.134 149.909 450.247 149.091C448.384 148.25 446.031 147.83 443.19 147.83H433.236V205.58H418.474ZM456.179 173.807L473.531 205.58H457.236L440.259 173.807H456.179ZM513.827 164.909V176.432H481.986V164.909H513.827Z" fill="white"/>
    <path d="M588.077 160.205H573.145C572.872 158.273 572.315 156.557 571.474 155.057C570.634 153.534 569.554 152.239 568.236 151.171C566.918 150.103 565.395 149.284 563.668 148.716C561.963 148.148 560.111 147.864 558.111 147.864C554.497 147.864 551.349 148.762 548.668 150.557C545.986 152.33 543.906 154.921 542.429 158.33C540.952 161.716 540.213 165.83 540.213 170.671C540.213 175.648 540.952 179.83 542.429 183.216C543.929 186.603 546.02 189.16 548.702 190.887C551.384 192.614 554.486 193.478 558.009 193.478C559.986 193.478 561.815 193.216 563.497 192.694C565.202 192.171 566.713 191.41 568.031 190.41C569.349 189.387 570.44 188.148 571.304 186.694C572.19 185.239 572.804 183.58 573.145 181.716L588.077 181.785C587.69 184.989 586.724 188.08 585.179 191.057C583.656 194.012 581.599 196.66 579.009 199C576.44 201.319 573.372 203.16 569.804 204.523C566.259 205.864 562.247 206.535 557.77 206.535C551.543 206.535 545.974 205.125 541.065 202.307C536.179 199.489 532.315 195.41 529.474 190.069C526.656 184.728 525.247 178.262 525.247 170.671C525.247 163.057 526.679 156.58 529.543 151.239C532.406 145.898 536.293 141.83 541.202 139.035C546.111 136.216 551.634 134.807 557.77 134.807C561.815 134.807 565.565 135.375 569.02 136.512C572.497 137.648 575.577 139.307 578.259 141.489C580.94 143.648 583.122 146.296 584.804 149.432C586.509 152.569 587.599 156.16 588.077 160.205ZM598.662 205.58V135.762H626.207C631.503 135.762 636.014 136.773 639.741 138.796C643.469 140.796 646.31 143.58 648.264 147.148C650.241 150.694 651.23 154.785 651.23 159.421C651.23 164.057 650.23 168.148 648.23 171.694C646.23 175.239 643.332 178 639.537 179.978C635.764 181.955 631.196 182.944 625.832 182.944H608.276V171.114H623.446C626.287 171.114 628.628 170.625 630.469 169.648C632.332 168.648 633.719 167.273 634.628 165.523C635.56 163.75 636.026 161.716 636.026 159.421C636.026 157.103 635.56 155.08 634.628 153.353C633.719 151.603 632.332 150.25 630.469 149.296C628.605 148.319 626.241 147.83 623.378 147.83H613.423V205.58H598.662ZM687.17 181.307H699.716L706.023 189.421L712.227 196.648L723.92 211.307H710.148L702.102 201.421L697.977 195.557L687.17 181.307ZM724.977 170.671C724.977 178.285 723.534 184.762 720.648 190.103C717.784 195.444 713.875 199.523 708.92 202.341C703.989 205.137 698.443 206.535 692.284 206.535C686.08 206.535 680.511 205.125 675.58 202.307C670.648 199.489 666.75 195.41 663.886 190.069C661.023 184.728 659.591 178.262 659.591 170.671C659.591 163.057 661.023 156.58 663.886 151.239C666.75 145.898 670.648 141.83 675.58 139.035C680.511 136.216 686.08 134.807 692.284 134.807C698.443 134.807 703.989 136.216 708.92 139.035C713.875 141.83 717.784 145.898 720.648 151.239C723.534 156.58 724.977 163.057 724.977 170.671ZM710.011 170.671C710.011 165.739 709.273 161.58 707.795 158.194C706.341 154.807 704.284 152.239 701.625 150.489C698.966 148.739 695.852 147.864 692.284 147.864C688.716 147.864 685.602 148.739 682.943 150.489C680.284 152.239 678.216 154.807 676.739 158.194C675.284 161.58 674.557 165.739 674.557 170.671C674.557 175.603 675.284 179.762 676.739 183.148C678.216 186.535 680.284 189.103 682.943 190.853C685.602 192.603 688.716 193.478 692.284 193.478C695.852 193.478 698.966 192.603 701.625 190.853C704.284 189.103 706.341 186.535 707.795 183.148C709.273 179.762 710.011 175.603 710.011 170.671Z" fill="#0D7EFB"/>
</svg>