<svg width="140" height="25" viewBox="0 0 140 25" fill="none" xmlns="http://www.w3.org/2000/svg">
  <path fill-rule="evenodd" clip-rule="evenodd" d="M26.3027 0.000244141L21.1372 0.062657C20.3506 1.48246 19.5639 2.90226 18.7773 4.32207C16.891 7.72211 13.0881 14.6037 13.0881 14.6037L15.3251 15.1108C15.3251 15.1108 19.128 8.22921 21.0143 4.82917C21.8009 3.40936 22.5875 1.98957 23.3742 0.56976L28.5397 0.507347L26.3027 0.000244141Z" fill="#03275D" fill-opacity="0.2"/>
  <path fill-rule="evenodd" clip-rule="evenodd" d="M13.0862 14.604C12.2473 16.1439 11.4096 17.6827 10.5708 19.2225C11.4303 20.7583 12.2898 22.2941 13.1492 23.8288L15.3862 24.3359C14.5267 22.8012 13.6673 21.2654 12.8078 19.7296C13.6466 18.1898 14.4843 16.651 15.3231 15.1111L13.0862 14.604Z" fill="#03275D" fill-opacity="0.2"/>
  <path fill-rule="evenodd" clip-rule="evenodd" d="M13.1492 23.8285C13.9977 22.2918 14.8464 20.7551 15.6949 19.2173C17.843 15.3275 22.6173 6.67543 24.9849 2.38417C25.6531 1.1751 26.129 0.312431 26.3007 0.000244141L28.5377 0.507347C28.366 0.819534 27.8901 1.6822 27.2218 2.89127C24.8543 7.18253 20.08 15.8346 17.9319 19.7244C17.0833 21.2622 16.2347 22.7989 15.3861 24.3356L13.1492 23.8285Z" fill="#03275D" fill-opacity="0.2"/>
  <path fill-rule="evenodd" clip-rule="evenodd" d="M9.20845 16.8205C6.57465 12.1009 2.63378 5.03676 0 0.318272L5.16542 0.255859L7.40239 0.762963L2.23697 0.825375C4.87075 5.54386 8.81162 12.608 11.4454 17.3276L9.20845 16.8205Z" fill="#03275D" fill-opacity="0.2"/>
  <path fill-rule="evenodd" clip-rule="evenodd" d="M5.16577 0.255859L11.8285 12.1076L9.2088 16.8205L11.4458 17.3276L14.0654 12.6147L7.40274 0.762963L5.16577 0.255859Z" fill="#03275D" fill-opacity="0.2"/>
  <path fill-rule="evenodd" clip-rule="evenodd" d="M13.1563 9.65017C10.5226 4.93057 10.5291 4.94145 7.89526 0.22187L18.4989 0.09375L20.7358 0.600853L10.1322 0.728973C12.766 5.44856 12.7595 5.43768 15.3933 10.1573L13.1563 9.65017Z" fill="#03275D" fill-opacity="0.2"/>
  <path fill-rule="evenodd" clip-rule="evenodd" d="M18.499 0.09375L13.1565 9.65017L15.3935 10.1573L20.736 0.600853L18.499 0.09375Z" fill="#03275D" fill-opacity="0.2"/>
  <path d="M26.3019 0L21.1365 0.0624128C20.3498 1.48222 19.5632 2.90202 18.7765 4.32182C16.8903 7.72186 13.0874 14.6035 13.0874 14.6035C12.2486 16.1433 11.4108 17.6821 10.572 19.222C11.4315 20.7578 12.291 22.2936 13.1504 23.8283C13.999 22.2916 14.8476 20.7548 15.6962 19.217C17.8443 15.3273 22.6186 6.67518 24.9861 2.38393C25.6544 1.17485 26.1303 0.312187 26.3019 0ZM9.20845 16.82C6.57465 12.1004 2.63378 5.03628 0 0.317799L5.16542 0.255386L11.8281 12.1071L9.20845 16.82ZM13.1569 9.6507C10.5232 4.9311 10.5297 4.94198 7.89588 0.222395L18.4995 0.0942749L13.1569 9.6507Z" fill="#005CE4"/>
  <path d="M51.7277 6.74292L50.5514 8.69095L45.1336 17.6399L39.7158 8.69095L38.5396 6.74292H41.13L42.3133 8.69095L45.1336 13.3564L47.9539 8.69095L49.1372 6.74292H51.7277Z" fill="#16191B"/>
  <path d="M66.9398 9.74286V9.68502C66.9398 9.13498 66.4024 8.68863 65.7483 8.68863H60.499C59.8461 8.68863 59.3157 9.13498 59.3157 9.68502V9.74286C59.3157 10.2929 59.8461 10.7392 60.499 10.7392H65.1484C66.347 10.7392 67.4231 11.1725 68.1691 11.8655C68.2304 11.9102 68.2763 11.9626 68.3235 12.0139C68.8998 12.6087 69.2451 13.3661 69.2451 14.1879C69.2451 16.0901 67.4089 17.6299 65.1484 17.6299H61.0977C58.8384 17.6299 57.0093 16.0901 57.0093 14.1879H59.3145C59.3145 15.0162 60.1136 15.6895 61.0977 15.6895H65.1484C66.1325 15.6895 66.9387 15.0162 66.9387 14.1879C66.9387 13.3595 66.1313 12.6862 65.1484 12.6862H60.499C59.5538 12.6862 58.7088 12.3752 58.0853 11.8644C57.9156 11.7291 57.7624 11.5796 57.6316 11.4115C57.2391 10.939 57.0093 10.3627 57.0093 9.74176V9.68392C57.0093 8.06002 58.5697 6.7395 60.499 6.7395H65.7483C67.6776 6.7395 69.2451 8.06002 69.2451 9.68392V9.74176H66.9398V9.74286Z" fill="#16191B"/>
  <path d="M83.4234 6.75024V8.69282H78.1093V17.6407H75.8017V8.69282H70.4875V6.75024H83.4234Z" fill="#16191B"/>
  <path d="M87.5831 9.68625V11.2327L94.5672 11.225L95.7682 13.1742H87.5831V14.6955C87.5831 15.2455 88.1134 15.6984 88.7663 15.6984H98.2113V17.6399H88.7663C86.837 17.6399 85.2766 16.3205 85.2766 14.6955V9.68734C85.2766 8.06343 86.837 6.74292 88.7663 6.74292H98.2113V8.6844H88.7663C88.1146 8.68331 87.5831 9.13622 87.5831 9.68625Z" fill="#16191B"/>
  <path d="M101.358 12.1892C101.358 14.1241 103.226 15.6967 105.523 15.6967H109.686V13.609H105.425L104.225 11.6817L111.994 11.6653V17.6371H105.523C101.95 17.6371 99.0515 15.198 99.0515 12.1892C99.0515 9.18034 101.948 6.74121 105.523 6.74121H111.994V8.6827H105.523C103.225 8.6816 101.358 10.2542 101.358 12.1892Z" fill="#16191B"/>
  <path d="M124.168 15.7513L125.486 17.6371H122.897L121.605 15.7327L121.053 14.9797L120.58 14.35C120.213 13.908 119.293 13.3962 118.455 13.3962H116.15V17.6382H113.844V6.74121H122.009C122.978 6.74121 123.847 7.0708 124.476 7.60228C125.107 8.13921 125.498 8.87695 125.498 9.68563C125.498 10.8763 124.66 12.6715 123.453 13.131C123.138 13.2543 122.8 13.3383 122.447 13.37C122.445 13.37 122.444 13.37 122.443 13.37L124.168 15.7513ZM122.008 11.4547C122.178 11.4547 122.338 11.4285 122.493 11.3641C122.923 11.2026 123.164 10.6089 123.164 10.1484C123.164 9.68781 123.056 9.20435 122.833 8.99809C122.667 8.84421 122.416 8.6816 122.008 8.6816H116.152V11.4547H122.008Z" fill="#16191B"/>
  <path d="M139.147 16.5497C137.961 14.5874 135.566 10.6303 134.49 8.85138C134.064 8.14856 133.639 7.44574 133.213 6.74292C132.782 7.45447 132.352 8.16602 131.921 8.87866C132.341 9.58257 132.761 10.2865 133.182 10.9915C133.182 10.9915 135.088 14.1378 136.034 15.693C136.429 16.3423 136.822 16.9916 137.217 17.641H139.806C139.72 17.4969 139.481 17.1019 139.147 16.5497ZM132.549 12.1461L129.207 17.6399H126.618C127.938 15.4529 129.915 12.1789 131.236 9.99182L132.549 12.1461Z" fill="#005CE4"/>
  <path d="M52.8494 17.642V9.08813L55.157 10.9696V17.6431H52.8494V17.642Z" fill="#16191B"/>
  <path d="M52.8494 7.9992L55.157 9.87957V6.69287H52.8494V7.9992Z" fill="#005CE4"/>
</svg>
