<svg width="96" height="96" viewBox="0 0 120 120" fill="none" xmlns="http://www.w3.org/2000/svg">
<path d="M119 7H95.826C92.2968 13.3158 88.7676 19.6317 85.2384 25.9475C76.776 41.0721 59.7148 71.6845 59.7148 71.6845C55.9516 78.5353 52.1933 85.3811 48.4301 92.2318C52.2859 99.1562 56.1417 106.081 59.9976 113C63.8046 106.164 67.6117 99.328 71.4188 92.487C81.0559 75.1835 102.475 36.6947 113.097 17.6049C116.095 12.2264 118.23 8.3888 119 7ZM42.3124 81.4012C30.4963 60.1227 12.8161 28.2736 1 7H24.174L54.0652 60.4368L42.3124 81.4012ZM60.0268 49.508C48.2107 28.2294 48.24 28.2785 36.4239 7H83.9953L60.0268 49.508Z" fill="#960300"/>
</svg>
